<svg width="228" height="69" viewBox="0 0 228 69" fill="none" xmlns="http://www.w3.org/2000/svg">
<path d="M106.802 33.4373V33.059H103.017C100.745 33.059 98.4733 33.059 96.2037 33.059H95.8232L95.8277 33.4396C95.8323 33.7586 95.83 34.0776 95.8277 34.3943C95.8232 34.9389 95.8209 35.5018 95.8459 36.0601L95.8619 36.4224L96.2242 36.4201C97.7236 36.4155 99.2252 36.4155 100.725 36.4155C101.634 36.4155 102.541 36.4155 103.45 36.4155V37.0627C103.45 37.744 103.45 38.4276 103.45 39.1112C103.452 39.6103 103.334 40.0729 103.106 40.4488C102.732 41.0481 102.133 41.5745 101.369 41.971C99.7835 42.7845 97.8626 43.1218 95.6636 42.9691C93.1594 42.7686 90.8465 41.6702 89.3221 39.9589C88.1417 38.6373 87.433 36.9191 87.3237 35.1167C87.1801 33.2163 87.6244 31.3659 88.5769 29.903C89.9646 27.7223 92.4416 26.2298 95.1988 25.913C97.1038 25.7011 98.7991 25.9039 100.232 26.5123C101.426 27.0364 102.611 27.8613 103.965 29.1032L104.241 29.3561L104.496 29.0827C104.774 28.7865 105.054 28.4925 105.337 28.1986C105.649 27.8727 105.963 27.5446 106.271 27.2142L106.519 26.9476L106.26 26.6901C104.241 24.6848 102.231 23.4452 100.112 22.8983C96.1581 21.8797 91.9084 22.6271 88.7456 24.8967C86.2891 26.6422 84.5596 29.4746 84.1175 32.4757C83.7689 34.8865 84.0606 37.2359 84.9652 39.2708C85.9337 41.5153 87.6723 43.4248 89.853 44.6462C91.8355 45.7764 94.1779 46.3643 96.6116 46.3643C97.3271 46.3643 98.0517 46.3142 98.7786 46.2094C101.073 45.8858 103.069 45.0586 104.557 43.8145C105.954 42.6159 106.747 41.1211 106.797 39.5943C106.809 38.3069 106.809 36.9966 106.806 35.7319C106.802 34.9686 106.802 34.2029 106.802 33.4373Z" fill="#081131"/>
<path d="M147.34 23.4743C145.253 22.5423 142.874 22.2096 140.458 22.5127C136.956 22.9502 133.711 24.9372 131.774 27.8243C130.539 29.645 129.844 31.7414 129.765 33.8788C129.651 36.08 130.188 38.3359 131.278 40.2272C132.326 42.0821 133.875 43.6361 135.753 44.7185C137.626 45.8077 139.811 46.3637 142.022 46.3637C143.462 46.3637 144.913 46.1268 146.297 45.6482C148.363 44.9236 150.17 43.7022 151.526 42.1163C152.898 40.5098 153.814 38.5547 154.174 36.4605C154.545 34.2479 154.347 32.0353 153.6 30.0642C152.511 27.1339 150.227 24.7276 147.34 23.4743ZM150.802 36.1643C150.444 37.9964 149.441 39.6803 147.98 40.9017C145.522 42.9708 141.956 43.5837 138.893 42.4581C136.87 41.7243 135.149 40.2796 134.169 38.4977C133.408 37.1373 133.048 35.5103 133.151 33.9152C133.255 31.9054 134.128 29.9344 135.55 28.5033C136.974 27.0473 138.92 26.113 141.033 25.8692C142.899 25.6595 144.706 25.9558 146.262 26.7282C147.946 27.5463 149.309 28.8976 150.1 30.5405C150.934 32.2199 151.182 34.216 150.802 36.1643Z" fill="#081131"/>
<path d="M114.779 42.4422V22.9092H111.427V23.2852C111.425 28.8201 111.425 34.3551 111.427 39.8878V45.7987H128.711V45.4227C128.711 44.8439 128.711 44.2651 128.711 43.6864V42.4399H114.779V42.4422Z" fill="#081131"/>
<path d="M176.537 33.8149C176.578 33.7739 176.619 33.7329 176.662 33.6896C176.938 33.4116 177.225 33.1245 177.444 32.7895C178.355 31.5499 178.674 29.8295 178.344 27.9519C178.066 26.318 177.049 24.8392 175.623 23.9983C174.397 23.2782 172.859 22.9114 171.054 22.9114C166.952 22.9114 162.849 22.9114 158.747 22.9114H158.371V23.2874C158.369 28.8223 158.369 34.3573 158.369 39.89V45.8009H170.744C170.769 45.8009 170.797 45.8009 170.822 45.8009C171.797 45.8009 172.804 45.7986 173.8 45.6938C174.819 45.5844 175.707 45.2859 176.446 44.8028C177.904 43.8549 178.941 42.4216 179.292 40.8721C179.599 39.4889 179.497 38.0374 179.002 36.7841C178.544 35.6356 177.678 34.5943 176.537 33.8149ZM161.762 30.2739C161.762 28.9363 161.762 27.5987 161.764 26.2633H170.475H170.671C171.385 26.2633 172.123 26.2588 172.818 26.3978C173.645 26.5596 174.388 27.127 174.762 27.8858C175.101 28.5466 175.165 29.392 174.942 30.2647C174.768 30.9278 174.276 31.5363 173.625 31.8917C172.909 32.2723 172.009 32.4477 170.856 32.4318C169.983 32.4318 169.113 32.4318 168.24 32.4318C167.534 32.4318 166.827 32.4318 166.121 32.4318C164.667 32.4318 163.215 32.4318 161.762 32.4318V30.2739ZM175.935 40.3958C175.698 41.1091 175.099 41.7198 174.297 42.0707C173.563 42.3851 172.713 42.4056 171.893 42.4284L171.633 42.4353C169.436 42.4421 167.24 42.4398 165.045 42.4398C164.234 42.4398 163.425 42.4398 162.614 42.4398C162.329 42.4398 162.046 42.4398 161.762 42.4398C161.762 40.2227 161.762 38.0055 161.762 35.7883C163.525 35.7883 165.291 35.7883 167.055 35.7883H169.894C171.273 35.7746 172.697 35.7587 173.994 36.2167C174.976 36.5653 175.705 37.2717 175.946 38.1057C176.168 38.8919 176.165 39.7054 175.935 40.3958Z" fill="#081131"/>
<path d="M202.164 36.5608C200.07 32.0808 197.976 27.5987 195.875 23.1233L195.772 22.9045L195.531 22.9068C194.986 22.9114 194.441 22.9114 193.897 22.9091C193.56 22.9091 193.22 22.9091 192.885 22.9091H192.648L192.546 23.1233C189.289 29.9708 186.033 36.8205 182.777 43.668L181.765 45.7963H183.604C184.155 45.7963 184.709 45.7963 185.261 45.7963H185.504L186.475 43.6726C187.311 41.8428 188.148 40.0152 188.984 38.1855H199.145L202.754 45.7963H206.487L206.236 45.2585C204.876 42.3623 203.52 39.4615 202.164 36.5608ZM195.895 34.8472C194.141 34.8472 192.388 34.8472 190.634 34.8472L192.199 31.534C192.858 30.1394 193.519 28.7426 194.177 27.348C195.335 29.8477 196.492 32.3474 197.648 34.8472H195.895Z" fill="#081131"/>
<path d="M227.366 42.8181V42.4421H222.346C219.376 42.4421 216.405 42.4421 213.436 42.4421V22.9114H213.06C212.41 22.9091 211.759 22.9091 211.109 22.9114H210.084V23.2874C210.081 28.8223 210.081 34.3573 210.084 39.89V45.8009H227.366V44.5567C227.366 43.9757 227.366 43.3969 227.366 42.8181Z" fill="#081131"/>
<path d="M34.451 68.2008C15.8043 68.2008 0.63501 53.0314 0.63501 34.3848C0.63501 15.7382 15.8043 0.568848 34.451 0.568848C53.0976 0.568848 68.267 15.7382 68.267 34.3848C68.267 53.0314 53.0976 68.2008 34.451 68.2008ZM34.451 4.45404C17.9486 4.45404 4.5202 17.8802 4.5202 34.3848C4.5202 50.8872 17.9463 64.3156 34.451 64.3156C50.9557 64.3156 64.3818 50.8895 64.3818 34.3848C64.3818 17.8824 50.9557 4.45404 34.451 4.45404ZM51.0855 36.586C50.1923 35.351 49.0757 34.4782 47.7427 33.9678C48.481 33.683 49.1691 33.2341 49.8072 32.6165C50.4452 31.999 50.9602 31.2402 51.3499 30.3378C51.7395 29.4355 51.9355 28.4533 51.9355 27.3892C51.9355 25.671 51.555 24.1717 50.7939 22.8865C50.0328 21.6013 48.8957 20.5576 47.4669 19.8695C46.0382 19.1813 44.3861 18.8372 42.5108 18.8372C41.4421 18.8372 27.0703 18.8463 27.0703 18.8463C25.7577 18.8463 24.5409 19.0537 23.454 19.4639C22.3625 19.874 21.4008 20.471 20.5919 21.2367C19.783 22.0046 19.1449 22.9457 18.6983 24.0372C18.2266 25.188 18.0101 26.4572 18.0261 27.7994H22.7567C22.7407 26.2681 23.1418 24.951 23.9826 24.199C24.8007 23.4675 25.8398 23.0961 27.0703 23.0961C27.9407 23.0961 28.7109 23.2807 29.3649 23.6476C30.0121 24.0099 30.5066 24.5408 30.837 25.2199C31.1719 25.9103 31.3406 26.6896 31.3406 27.535C31.3406 28.8658 30.8051 30.1988 29.7523 31.4954L17.9851 45.8011V49.9347H38.147L33.8904 49.9415H43.0235C44.8556 49.9415 46.4871 49.6043 47.9159 48.9298C49.3446 48.2553 50.4521 47.2618 51.2405 45.9492C52.0289 44.6367 52.4231 43.0439 52.4231 41.1685C52.4277 39.3455 51.9811 37.8211 51.0855 36.586ZM44.8373 23.6498C45.5961 23.9962 46.1863 24.5066 46.6056 25.1788C47.0249 25.8511 47.2345 26.6486 47.2345 27.5692C47.2345 28.9706 46.7811 30.0621 45.8719 30.8414C44.9627 31.6207 43.7276 32.0104 42.1667 32.0104H34.8179C35.0571 31.623 35.2554 31.2584 35.4126 30.9212C35.8547 29.9755 36.078 28.8476 36.078 27.5738C36.078 25.9058 35.7271 24.4132 35.0343 23.1303H42.1644C43.1875 23.128 44.0785 23.3035 44.8373 23.6498ZM47.1046 43.4199C46.7081 44.1308 46.1248 44.6868 45.3591 45.0924C44.5935 45.498 43.6775 45.6986 42.6133 45.6986H40.3346L36.078 45.6781H23.8641L31.5753 36.2442H42.611C43.6615 36.2442 44.573 36.4425 45.3478 36.8412C46.1202 37.2377 46.7059 37.7846 47.1046 38.4796C47.5011 39.1746 47.7017 39.9995 47.7017 40.9497C47.7017 41.8886 47.5011 42.7112 47.1046 43.4199Z" fill="#081131"/>
</svg>
